<?xml version="1.0" encoding="utf-8"?>
<!-- Generator: Adobe Illustrator 21.1.0, SVG Export Plug-In . SVG Version: 6.00 Build 0)  -->
<svg version="1.1" id="Layer_1" xmlns="http://www.w3.org/2000/svg" xmlns:xlink="http://www.w3.org/1999/xlink" x="0px" y="0px"
	 viewBox="0 0 529.99 53.572" enable-background="new 0 0 529.99 53.572" xml:space="preserve" fill="#0a164b">
<g>
	<path d="M24.916,52.348h-5.688L0.002,1.08h5.472l13.394,36.867c1.224,3.385,2.304,6.769,3.24,10.225
		c1.152-3.384,2.088-6.84,3.312-10.152L38.741,1.08h5.185L24.916,52.348z"/>
	<path d="M85.325,52.348h-5.4l-6.192-16.129H50.258l-6.265,16.129h-5.256L59.475,0.936h5.4L85.325,52.348z M62.139,5.545
		L51.77,32.258h20.45L62.139,5.545z"/>
	<path d="M97.562,1.08l27.075,41.62V1.08h6.552v51.269h-7.632L96.626,11.233v41.115h-6.48V1.08H97.562z"/>
	<path d="M183.46,52.348h-9V29.306h-23.474v23.042h-9.001V1.08h9.001v20.378h23.474V1.08h9V52.348z"/>
	<path d="M230.978,8.64h-28.01V22.25h25.994v7.272h-25.994v15.121h28.442v7.705h-37.371V1.08h36.939V8.64z"/>
	<path d="M282.674,52.348h-9.648l-4.896-13.609h-20.306l-5.041,13.609h-9.289l19.802-51.341h9.577L282.674,52.348z M258.12,10.369
		l-7.993,21.602h15.625L258.12,10.369z"/>
	<path d="M322.56,52.348h-35.139V1.08h9.073v43.492h26.065V52.348z"/>
	<path d="M358.993,8.856h-16.346v43.492h-9V8.856h-16.346V1.08h41.691V8.856z"/>
	<path d="M406.224,52.348h-9V29.306h-23.475v23.042h-9.001V1.08h9.001v20.378h23.475V1.08h9V52.348z"/>
	<path d="M424.22,52.348h-6.769V1.08h6.769V52.348z"/>
	<path d="M475.629,52.348h-5.4l-23.834-34.419c-2.447-3.528-4.896-7.129-6.768-10.945c0.287,4.104,0.359,8.137,0.359,12.241v33.123
		h-4.752V1.08h5.4l23.979,34.779c2.375,3.456,4.68,7.057,6.695,10.729c-0.144-4.536-0.359-9.001-0.359-13.537V1.08h4.68V52.348z"/>
	<path d="M529.99,52.348h-3.24l-0.864-7.272l-0.145-2.305c-3.096,6.841-9.648,10.801-18.001,10.801
		c-14.329,0-24.122-10.729-24.122-26.354c0-16.13,9.865-27.219,24.338-27.219c10.729,0,19.658,6.049,21.314,16.922h-4.681
		c-1.513-8.065-8.569-12.745-16.561-12.745c-11.881,0-19.586,9-19.586,22.97c0,13.537,7.777,22.322,19.514,22.322
		c9.073,0,16.058-5.761,17.426-14.617c0.217-1.513,0.288-2.305,0.288-4.537H508.1v-4.032h21.89V52.348z"/>
</g>
</svg>
