<?xml version="1.0" encoding="UTF-8"?><!DOCTYPE svg PUBLIC "-//W3C//DTD SVG 1.1//EN" "http://www.w3.org/Graphics/SVG/1.1/DTD/svg11.dtd"><svg xmlns="http://www.w3.org/2000/svg"><symbol id="icon-arrow" viewBox="0 0 306 306">
    <path d="M35.7 58.65L153 175.951 270.3 58.65 306 94.351 153 247.35 0 94.351z"/>
</symbol><symbol id="icon-bitcoin" viewBox="0 0 34.878 34.879">
    <path d="M29.263 19.941a5.863 5.863 0 0 0-2.238-2.21c-.649-.375-1.592-.722-2.819-1.033 1.146-.39 2.065-.882 2.767-1.478a6.25 6.25 0 0 0 1.604-2.062c.37-.777.557-1.6.557-2.465 0-1.191-.351-2.285-1.051-3.283-.703-.998-1.705-1.762-3.009-2.295-.756-.309-1.694-.518-2.778-.648V0h-3.674v4.316H16.26V0h-3.674v4.316H4.787v3.632H5.82c.688 0 1.156.063 1.402.188a1.1 1.1 0 0 1 .516.508c.103.213.15.708.15 1.486v14.638c0 .764-.05 1.258-.15 1.477-.1.221-.271.389-.516.508-.246.119-.714.18-1.402.18H4.787v3.633h7.799v4.314h3.672v-4.314h2.282l.08-.002v4.316h3.674v-4.53c1.187-.154 2.183-.39 2.979-.709 1.533-.615 2.722-1.509 3.56-2.683.84-1.172 1.26-2.455 1.26-3.849-.002-1.164-.279-2.22-.83-3.168zM14.382 8.55h2.877c1.682 0 2.848.104 3.5.311s1.15.557 1.496 1.044c.344.49.518 1.079.518 1.771 0 .664-.182 1.25-.547 1.758-.363.509-.906.889-1.627 1.139-.721.251-1.834.377-3.34.377h-2.877v-6.4zm8.129 16.218c-.514.651-1.137 1.082-1.869 1.289-.731.207-1.654.312-2.768.312h-1.915c-.64 0-1.029-.035-1.174-.104a.617.617 0 0 1-.31-.367c-.052-.139-.082-.606-.095-1.412v-5.682h3.396c1.491 0 2.598.139 3.325.414.725.275 1.27.684 1.633 1.223.363.541.545 1.199.545 1.978.002.913-.256 1.696-.768 2.349z"/>
</symbol><symbol id="icon-coins" viewBox="0 0 500.267 500.267">
    <path d="M71.445 171.519c45.102 13.252 101.904 21.06 159.945 20.551 128.078-1.123 187.947-31.016 187.949-31.018 24.361-10.313 38.244-21.743 38.244-32.15V81.483c.018-.296.022-.606.008-.93l-.008-.157c-1.02-32.062-102.168-57.972-226.193-57.972-124.457 0-225.707 26.089-225.707 58.307V129.936c.001 13.847 24.279 29.391 65.762 41.583z"/>
    <path d="M500.266 210.848c0-11.534-12.963-22.288-35.229-31.349v1.498c0 10.931-15.306 22.991-41.99 33.699-.001.001-58.712 26.1-184.206 29.47-58.02 1.559-114.844-7.299-159.943-20.551-11.277-3.314-22.375-6.878-31.019-10.586-.061.161 0 50.99 0 50.99 0 13.848 24.768 29.393 66.25 41.584 45.102 13.252 101.904 21.059 159.945 20.551 128.077-1.123 187.946-31.017 187.948-31.019 24.361-10.313 38.244-21.743 38.244-32.149v-52.138z"/>
    <path d="M452.388 339.801c-8.646 3.708-18.741 7.271-30.015 10.586-45.104 13.252-101.924 22.109-159.945 20.551-125.494-3.371-184.203-29.47-184.203-29.47-26.686-10.708-41.992-22.769-41.992-33.698v-1.498C13.969 315.333 0 326.085 0 337.622v52.029c0 10.407 13.883 21.837 38.244 32.15.002.002 59.871 29.895 187.949 31.018 58.042.51 114.844-7.299 159.945-20.551 41.482-12.19 66.25-27.734 66.25-41.583v-47.834-3.05z"/>
</symbol><symbol id="icon-history" viewBox="0 0 510 510">
    <path d="M267.75 12.75c-89.25 0-168.3 48.45-209.1 122.4L0 76.5v165.75h165.75l-71.4-71.4c33.15-63.75 96.9-107.1 173.4-107.1C372.3 63.75 459 150.45 459 255s-86.7 191.25-191.25 191.25c-84.15 0-153-53.55-181.05-127.5H33.15c28.05 102 122.4 178.5 234.6 178.5C402.9 497.25 510 387.6 510 255S400.35 12.75 267.75 12.75zm-38.25 127.5V270.3l119.85 71.4 20.4-33.15-102-61.2v-107.1H229.5z" opacity=".9"/>
</symbol><symbol id="icon-home" viewBox="0 0 510 510">
    <path d="M204 471.75v-153h102v153h127.5v-204H510L255 38.25 0 267.75h76.5v204z"/>
</symbol><symbol id="icon-logout" viewBox="0 0 97.8 97.8">
    <path d="M63.2 85.5H11.4V14.6h51.8V3.2H.1v93.6h63.2V85.5z"/>
    <path d="M68.1 20.3l-9.2 9.2 13.6 13.6H17.8V57h54.6L58.9 70.6l9.2 9.2c.5-.5 29.3-29.3 29.8-29.7L68.1 20.3z"/>
</symbol><symbol id="icon-settings" viewBox="0 0 507.451 507.45">
    <path d="M440.813 280.5c0-7.65 2.55-15.3 2.55-25.5s0-17.85-2.55-25.5l53.55-43.35c5.1-5.1 5.1-10.2 2.55-15.3l-51-89.25c-2.55-2.55-7.649-5.1-15.3-2.55l-63.75 25.5c-12.75-10.2-28.05-17.85-43.35-25.5l-10.2-66.3C315.863 5.1 308.212 0 303.113 0h-102c-5.101 0-12.75 5.1-12.75 10.2l-10.2 68.85c-15.3 5.1-28.05 15.3-43.35 25.5l-61.2-25.5c-7.65-2.55-12.75 0-17.851 5.1l-51 89.25c-2.55 2.55 0 10.2 5.1 15.3l53.55 40.8c0 7.65-2.55 15.3-2.55 25.5s0 17.85 2.55 25.5l-53.55 43.35c-5.1 5.101-5.1 10.2-2.55 15.301l51 89.25c2.55 2.55 7.649 5.1 15.3 2.55l63.75-25.5c12.75 10.2 28.05 17.85 43.35 25.5l10.2 66.3c0 5.1 5.1 10.2 12.75 10.2h102c5.101 0 12.75-5.101 12.75-10.2l10.2-66.3c15.3-7.65 30.6-15.3 43.35-25.5l63.75 25.5c5.101 2.55 12.75 0 15.301-5.101l51-89.25c2.55-5.1 2.55-12.75-2.551-15.3l-58.649-40.8zm-188.7 63.75c-48.45 0-89.25-40.8-89.25-89.25s40.8-89.25 89.25-89.25 89.25 40.8 89.25 89.25-40.8 89.25-89.25 89.25z"/>
</symbol></svg>